<svg id="Layer_1" data-name="Layer 1" xmlns="http://www.w3.org/2000/svg" viewBox="0 0 26.34 24"><defs><style>.cls-1{fill:#fff;}</style></defs><title>Layout Tool check keyword</title><path class="cls-1" d="M5.13,5.13a11.75,11.75,0,0,1,3.78-.29.64.64,0,0,0,.68-.36,1.35,1.35,0,0,1,1.2-.67c.45,0,.9,0,1.34,0,.18,0,.47.12.49-.15s.22-.7-.18-1a1.41,1.41,0,0,1-.47-2,1.41,1.41,0,0,1,1.6-.59,1.39,1.39,0,0,1,1,1.47A1.57,1.57,0,0,1,14,2.63a1.13,1.13,0,0,0-.29,1.07c.07.14.2.11.32.11h1.34a1.49,1.49,0,0,1,1.51.84c.09.19.23.2.39.2.72,0,1.44,0,2.16,0A5.17,5.17,0,0,1,24.21,8c.09.19.13.39.41.4a1.72,1.72,0,0,1,1.7,1.44l0,.44-.05.25a1.77,1.77,0,0,1-1.74,1.27.29.29,0,0,0-.29.23,5.45,5.45,0,0,1-2.35,2.75,5.88,5.88,0,0,1-2.25.64H17.33a2.24,2.24,0,0,0-.73,0l-.1,0-.16.17a.8.8,0,0,0-.54.18H10.53a3.33,3.33,0,0,0-1.62-.44A16.42,16.42,0,0,1,6,15.38a.66.66,0,0,0-.39,0l-1.3-.57A5.41,5.41,0,0,1,2,12.09a.31.31,0,0,0-.32-.24A1.73,1.73,0,0,1,.07,10.69a1.86,1.86,0,0,1,.65-2,1.69,1.69,0,0,1,.54-.2c.57,0,.83-.3,1-.8a5.61,5.61,0,0,1,.6-1l1-.9h0l1-.58L5,5.18Zm8,8.61h3.14c1,0,2.09,0,3.14,0A3.56,3.56,0,0,0,22.73,9a3.54,3.54,0,0,0-3.55-2.44H14.47c-2.46,0-4.93,0-7.4,0a3.75,3.75,0,0,0-3.69,3.65A3.76,3.76,0,0,0,7,13.75C9.05,13.72,11.1,13.74,13.15,13.74ZM13.16,1c-.24.06-.42.18-.42.44a.43.43,0,0,0,.85,0C13.59,1.18,13.42,1,13.16,1Z"/><path class="cls-1" d="M7.37,20.73a4.49,4.49,0,0,1,.06-1.1c.07-.24,0-.29-.26-.23a4.69,4.69,0,0,0-.89.24,3.73,3.73,0,0,0-1.62.73c-.14,0-.2.07-.27.16-.33.06-.49.37-.77.49-.45.2-.38.47-.17.79l0,.23-.06.67,0,.09a1.45,1.45,0,0,1-2.69-.09l0-.18a.06.06,0,0,0,0-.08v-.39l0-.24c.25-.54.57-1,1.27-.93a.84.84,0,0,0,.62-.29,8,8,0,0,1,4.62-2.22,1.5,1.5,0,0,0,1.16-.54A3,3,0,0,1,9.61,17l1.17-.19a9.64,9.64,0,0,0,1.52,0,1.67,1.67,0,0,0,.63,0H15.8l.72.12h0l.14.06a.06.06,0,0,0,.08,0l1.07.65h0c.25.23.37.6.75.68l.14,0a.23.23,0,0,0,.21,0l.18,0a.45.45,0,0,0,.12.06A7.78,7.78,0,0,1,23,20.72a.23.23,0,0,0,.27.09h.36l.17,0h0a1.48,1.48,0,0,1,.95,1.94,1.44,1.44,0,0,1-2.1.63A1.39,1.39,0,0,1,22,22.25c0-.18,0-.35,0-.53.18-.09.32-.23.15-.4a2.1,2.1,0,0,0-1-.78,4.93,4.93,0,0,0-1.95-.95c-.31-.11-.31.15-.29.34a1.83,1.83,0,0,1-1.45,2.35.1.1,0,0,0-.09,0H9.6a2,2,0,0,1-2.14-1.2l0-.18Z"/><path class="cls-1" d="M11,22.69h1.3c.31,0,.37.12.26.37a1.48,1.48,0,0,1-.12.29c-.47.79-1.24.65-2,.61a1.22,1.22,0,0,1-1-.93c-.07-.25,0-.35.26-.34Z"/><path class="cls-1" d="M15.36,22.69c.41,0,.83,0,1.25,0s.39.13.28.42a1.18,1.18,0,0,1-1,.84,6.42,6.42,0,0,1-1.16,0,1.1,1.1,0,0,1-.78-.49c-.14-.2-.32-.46-.21-.69s.38-.07.58-.08S15,22.69,15.36,22.69Z"/><path class="cls-1" d="M7.2,11.24A1.56,1.56,0,0,1,5.71,9.85,1.56,1.56,0,0,1,7.2,8.44,1.4,1.4,0,0,1,8.61,9.82,1.37,1.37,0,0,1,7.2,11.24Z"/><path class="cls-1" d="M19.12,11.24a1.41,1.41,0,0,1-1.41-1.43,1.42,1.42,0,1,1,1.41,1.43Z"/><path class="cls-1" d="M13.2,12.51A3.71,3.71,0,0,1,11.34,12a.51.51,0,0,1-.27-.71.47.47,0,0,1,.72-.18,2.69,2.69,0,0,0,2.74,0c.29-.16.58-.13.72.18A.5.5,0,0,1,15,12,3.54,3.54,0,0,1,13.2,12.51Z"/></svg>