<svg id="Layer_1" data-name="Layer 1" xmlns="http://www.w3.org/2000/svg" viewBox="0 0 23.88 23.85"><defs><style>.cls-1{fill:#fff;}</style></defs><title>Layout Tool check keyword</title><path class="cls-1" d="M23.88,11.9A11.94,11.94,0,1,1,11.89,0,11.91,11.91,0,0,1,23.88,11.9ZM12,1.22a10.7,10.7,0,1,0,10.68,10.7A10.76,10.76,0,0,0,12,1.22Z"/><path class="cls-1" d="M11.91,21.77a9.9,9.9,0,0,1-8.07-4.21c-.63-.83-.44-1.29.37-1.76a11.12,11.12,0,0,1,4.14-1.37,19.87,19.87,0,0,1,10.31.86c2.14.85,2.24,1.32.74,3.05A9.76,9.76,0,0,1,11.91,21.77Z"/><path class="cls-1" d="M11.59,13.08a3.76,3.76,0,0,1-3.53-3.9,3.89,3.89,0,1,1,3.53,3.9Z"/></svg>