<svg id="Layer_1" data-name="Layer 1" xmlns="http://www.w3.org/2000/svg" viewBox="0 0 23.93 25.55"><defs><style>.cls-1{fill:#fff;}</style></defs><title>Layout Tool check keyword</title><path class="cls-1" d="M1.09,0H22.14A2.22,2.22,0,0,1,23,.68l.22.54a9.8,9.8,0,0,1,.05,1.21v11a1.14,1.14,0,0,1-.27.9.55.55,0,0,1-.75-.24c-.12-.2-.05-.44-.08-.66V7.3c0-.49,0-1,0-1.48,0-.13,0-.17-.14-.17l-1.1,0H1.35c-.2-.06-.3,0-.26.27,0,0,0,.09,0,.14v17c0,.29,0,.58,0,.86s0,.35.26.28H12.67a1,1,0,0,1,.36.14.88.88,0,0,1,0,1.09l-.31.07H.55c-.36,0-.54-.22-.54-.64,0-.19,0-.38,0-.57V2.43A8.17,8.17,0,0,1,.05,1.22,4.36,4.36,0,0,1,.37.49,5.71,5.71,0,0,1,1.09,0Zm0,2.43V3.65c0,.13,0,.26,0,.38s0,.34.26.28H22c.13,0,.16,0,.16-.19,0-.56,0-1.13,0-1.7,0-.13,0-.26,0-.39A.81.81,0,0,0,22,1.45a.29.29,0,0,0-.3-.17H2.38a3.63,3.63,0,0,0-1,0c-.18,0-.24.21-.25.41S1.1,2.2,1.1,2.43Z"/><path class="cls-1" d="M14.55,25.55h-.39a.47.47,0,0,1-.24-.46l.2-.78.23-.78a.64.64,0,0,0,.05-.23,2.49,2.49,0,0,0,.16-.55,1.23,1.23,0,0,1,.19-.33l.42-.43.76-.76.79-.79.77-.76.79-.8.76-.76.79-.79.77-.77.26-.27a1.81,1.81,0,0,1,1.27-.74c.07,0,.12,0,.2,0s.39.06.58.11a.49.49,0,0,0,.23.11,3.82,3.82,0,0,1,.55.51.93.93,0,0,0,.12.27,1.73,1.73,0,0,1,.12.78,2,2,0,0,1-.23.78l-.05.07-.59.66a.46.46,0,0,0-.15.16l-.66.66-.12.11a7.36,7.36,0,0,0-.62.63.75.75,0,0,0-.16.15l-.66.66-.11.08c-.25.22-.48.46-.71.7l-.07.08-.7.7-.08.08a9.25,9.25,0,0,0-.7.7l-.08.07-.7.71-.07.07-.19.17a1.24,1.24,0,0,1-.47.38c-.31.09-.62.16-.94.24s-.5.1-.74.22A1.92,1.92,0,0,0,14.55,25.55ZM21.35,17a1.44,1.44,0,0,0-.27.28,3.94,3.94,0,0,0-.5.5,1.44,1.44,0,0,0-.28.27l-.51.52-.27.26-.5.5a1.79,1.79,0,0,0-.27.28l-.52.51-.26.27a3.94,3.94,0,0,0-.5.5,1.24,1.24,0,0,0-.28.28l-.52.51-.26.26a6,6,0,0,0-.5.51,1.72,1.72,0,0,0-.27.27l-.25.23.52.55c.17.23.41.37.61.59l.17-.19.36-.36.42-.42.35-.36.42-.42L18.6,22a1.43,1.43,0,0,0,.42-.39,3.49,3.49,0,0,0,.43-.43,2.32,2.32,0,0,0,.35-.35l.39-.39.39-.39a3.49,3.49,0,0,0,.43-.43,2.81,2.81,0,0,0,.35-.34l.39-.39.39-.39a3.41,3.41,0,0,0,.42-.43,3.51,3.51,0,0,0-.42-.44l-.35-.34L21.5,17C21.43,16.92,21.39,17,21.35,17Z"/><path class="cls-1" d="M16.79,16.89H7.52c-.1,0-.17,0-.15-.15a2.44,2.44,0,0,0,0-.27c0-.18,0-.35,0-.53s0-.15.15-.15h9.27c.2,0,.48-.09.58.05s0,.4,0,.6v0c0,.41,0,.41-.45.41Z"/><path class="cls-1" d="M3.65,16.47a4.69,4.69,0,0,0,0-.53c0-.11,0-.14.14-.14H5.46c.36,0,.36,0,.36.38,0,.1,0,.2,0,.3v.05c0,.35,0,.35-.37.37h-1c-.17,0-.35,0-.52,0s-.29,0-.25-.24A.5.5,0,0,0,3.65,16.47Z"/><path class="cls-1" d="M18.85,10.49h.53c.11,0,.14,0,.14.14s0,.46,0,.68-.06.36-.32.31-.24,0-.35,0H7.47c-.2-.05,0-.22-.11-.32s0-.45,0-.68.06-.15.16-.15H18.85Z"/><path class="cls-1" d="M19.52,8.23c0,.21,0,.43,0,.64s0,.14-.14.14H7.52c-.1,0-.16,0-.16-.15s0-.42,0-.63a1.62,1.62,0,0,0,0-.22c0-.13,0-.14.15-.14H19.15C19.5,7.87,19.5,7.87,19.52,8.23Z"/><path class="cls-1" d="M4.43,9c-.25,0-.59.11-.73,0s0-.48-.05-.72,0-.37.38-.37H5.46c.35,0,.35,0,.37.37,0,.13,0,.26,0,.4,0,.36,0,.36-.36.37Z"/><path class="cls-1" d="M4.44,14.26H3.8c-.11,0-.14,0-.14-.15s0-.48,0-.73,0-.23.21-.21a5.42,5.42,0,0,0,.57,0h1c.14.05.4-.11.37.21,0,.17,0,.34,0,.5,0,.36,0,.36-.36.38Z"/><path class="cls-1" d="M3.65,11.32c0-.22,0-.44,0-.67s0-.16.16-.15H5.59c.21,0,.25.06.24.24a5.61,5.61,0,0,0,0,.58c0,.25-.06.36-.32.31H4.44a2.36,2.36,0,0,0-.46,0C3.73,11.67,3.62,11.58,3.65,11.32Z"/><path class="cls-1" d="M18.85,13.17a3.38,3.38,0,0,0,.45,0c.17,0,.24,0,.22.21s0,.48,0,.72,0,.16-.16.16H7.52c-.1,0-.16,0-.16-.15s0-.49,0-.73,0-.24.16-.21H18.85Z"/></svg>