<svg id="Layer_1" data-name="Layer 1" xmlns="http://www.w3.org/2000/svg" viewBox="0 0 27.54 27.54"><defs><style>.cls-1{fill:#fff;}</style></defs><title>Layout Tool check keyword</title><path class="cls-1" d="M8.62,1a.25.25,0,0,0,.15,0s.05,0,.07,0L9,.81s.05,0,.07,0L9.24.74A.26.26,0,0,0,9.41.69l.13,0A.23.23,0,0,0,9.72.59l.16,0a.48.48,0,0,0,.23-.07l.11,0a.34.34,0,0,0,.24-.06l.17,0a.08.08,0,0,0,.1,0l.06,0a.08.08,0,0,0,.11,0l.09,0a.06.06,0,0,0,.08,0l.06,0s0,0,.07,0l.1,0a.14.14,0,0,0,.14,0l.23,0a.17.17,0,0,0,.17,0h.1a.2.2,0,0,0,.17,0l.23,0a.06.06,0,0,0,.08,0h.1a5.25,5.25,0,0,0,.56,0h1.7a.36.36,0,0,0,.27,0h.1a.09.09,0,0,0,.1,0l.17,0a.27.27,0,0,0,.2,0h.1a.14.14,0,0,0,.14,0h.07a.06.06,0,0,0,.07,0l.13,0a.11.11,0,0,0,.13,0l.1,0a.27.27,0,0,0,.21,0l.1,0a.08.08,0,0,0,.1,0h.07s0,0,.07,0l.2,0a.3.3,0,0,0,.2.06l.17,0a.3.3,0,0,0,.2.06l.14,0a.28.28,0,0,0,.2.06l.13,0a.27.27,0,0,0,.17.06l.08,0a.07.07,0,0,0,.09,0l.24.09a.19.19,0,0,0,.13,0l.08,0S19,1,19,1l.15.05a.09.09,0,0,0,.09.05l.14.06a.07.07,0,0,0,.09,0,.74.74,0,0,0,.24.11s0,0,.07,0a.55.55,0,0,0,.24.12.08.08,0,0,0,.09.05.13.13,0,0,0,.09.05s0,0,.09,0l.11.06a.06.06,0,0,0,.08.05h0a.19.19,0,0,0,.16.09l.08,0a.21.21,0,0,0,.15.09s0,0,0,0A.06.06,0,0,0,21,2l.08.05a.1.1,0,0,0,.09.06l.52.35a.08.08,0,0,0,.08.06l.06,0a.07.07,0,0,0,.08.05l.05,0a.1.1,0,0,0,.09.06l.05,0a.08.08,0,0,0,.08.06l.05,0a.08.08,0,0,0,.08.06l.08.06a.11.11,0,0,0,.09.08l.13.1a.09.09,0,0,0,.08.07l.15.13a.08.08,0,0,0,.08.07l.49.46a.48.48,0,0,0,.2.2l.45.48a.09.09,0,0,0,.07.08.54.54,0,0,0,.14.16.08.08,0,0,0,.06.08l.1.12a.14.14,0,0,0,.08.1l.06.07a.09.09,0,0,0,.06.08l.05,0a.07.07,0,0,0,.06.08l0,.06a.08.08,0,0,0,.06.08l0,.05A.09.09,0,0,0,25,5.7l0,0a.08.08,0,0,0,.06.08l.35.52a.07.07,0,0,0,.05.09l.05.08a.11.11,0,0,0,0,.09h0a.21.21,0,0,0,.1.16l0,.08a.11.11,0,0,0,.05.09l0,.08a.09.09,0,0,0,.05.09l.06.11a.08.08,0,0,0,0,.09l.35.72a.09.09,0,0,0,.05.09l.06.14c0,.05,0,.08,0,.1l.06.14a.07.07,0,0,0,0,.09l0,.08a.15.15,0,0,0,0,.14L26.7,9a.32.32,0,0,0,.07.19l0,.08a.19.19,0,0,0,.06.17l0,.13a.31.31,0,0,0,.06.21l0,.13a.37.37,0,0,0,.06.21l.05.16a.26.26,0,0,0,.05.21l.05.2s0,0,0,.07v.06a.11.11,0,0,0,0,.11l0,.09a.06.06,0,0,0,0,.08v.06a.08.08,0,0,0,0,.1v.07a.17.17,0,0,0,0,.14l0,.13a0,0,0,0,0,0,.07v.06a.12.12,0,0,0,0,.14v.1a.28.28,0,0,0,0,.2l0,.17a.09.09,0,0,0,0,.11v.1a.42.42,0,0,0,0,.27v2a.41.41,0,0,0,0,.27v.1s0,0,0,.07l0,.23a.2.2,0,0,0,0,.17v.1a.2.2,0,0,0,0,.17l0,.24a.13.13,0,0,0,0,.13v.1s0,0,0,.07v.07s0,0,0,.07l0,.1s0,.06,0,.1v.07s0,.06,0,.1l0,.17a.38.38,0,0,0-.06.23l0,.11a.38.38,0,0,0-.06.23l-.05.17a.27.27,0,0,0-.06.17l0,.13a2.3,2.3,0,0,0-.18.5l0,.08s0,0,0,.06a.32.32,0,0,0-.06.15.27.27,0,0,0-.08.19.51.51,0,0,0-.07.17s0,0,0,.07l0,0a.07.07,0,0,0,0,.09l-.07.15a.23.23,0,0,0-.08.16l0,0a.25.25,0,0,0-.08.16l0,0a.07.07,0,0,0,0,.09,1.18,1.18,0,0,0-.16.29s-.05,0-.05.08l-.07.13a.13.13,0,0,0-.06.11l-.22.35a.11.11,0,0,0-.05.09l-.05.08a.08.08,0,0,0-.06.09.6.6,0,0,0-.14.21.1.1,0,0,0-.06.09l0,.05a.09.09,0,0,0-.06.09l-.34.45a.09.09,0,0,0-.06.09l-.05.05a.07.07,0,0,0-.06.08l-.34.39a3.87,3.87,0,0,0-.47.52l0,0a.87.87,0,0,0-.27.27l0,0a.23.23,0,0,0-.11.08,13.64,13.64,0,0,1-8.14,3.7,13.3,13.3,0,0,1-5.39-.55,13.7,13.7,0,0,1-8.28-7l-.38-.81v0A.27.27,0,0,0,1,18.85a.2.2,0,0,0-.06-.14s0-.06,0-.07l-.08-.2a.12.12,0,0,0,0-.13l0-.08a.27.27,0,0,0-.06-.17l-.05-.13a.25.25,0,0,0-.06-.2l0-.14s0-.05,0-.07l0-.06s0-.08,0-.1l0-.14A.43.43,0,0,0,.37,17l0-.2s0-.05,0-.07v-.06a.14.14,0,0,0,0-.14l0-.1a.35.35,0,0,0,0-.24v-.06a.17.17,0,0,0,0-.17l0-.13a.05.05,0,0,0,0-.08v-.06a.2.2,0,0,0,0-.17v-.1a.31.31,0,0,0,0-.21L0,15a.12.12,0,0,0,0-.14v-.13a1.47,1.47,0,0,0,0-.47v-.91a1.55,1.55,0,0,0,0-.48V12.7a.11.11,0,0,0,0-.11l0-.23a.33.33,0,0,0,0-.24V12a.2.2,0,0,0,0-.17v-.06a0,0,0,0,0,0-.07l0-.14a.2.2,0,0,0,0-.17v-.06a.08.08,0,0,0,0-.1v-.07a0,0,0,0,0,0-.07l0-.1a.63.63,0,0,0,.06-.27l0-.2a.41.41,0,0,0,.06-.24l0-.13a.39.39,0,0,0,.06-.24l0-.13a0,0,0,0,0,0-.07l.06-.21a.49.49,0,0,0,.08-.23l0-.08A.23.23,0,0,0,.83,9l0-.08a.27.27,0,0,0,.08-.19l0-.08a.07.07,0,0,0,0-.09l.06-.15a.22.22,0,0,0,.08-.19l0,0a.07.07,0,0,0,0-.09L1.27,8a.23.23,0,0,0,.08-.16v0a.22.22,0,0,0,.09-.16l0,0a.25.25,0,0,0,.08-.16l0-.05s.05,0,.05-.08l.25-.46a.06.06,0,0,0,0-.08L2,6.64A.06.06,0,0,0,2,6.56l.25-.39a.09.09,0,0,0,.06-.09l0-.07a.18.18,0,0,0,.09-.13l.1-.15a.08.08,0,0,0,.06-.08l0-.06a.08.08,0,0,0,.06-.08l0,0a.08.08,0,0,0,.07-.08l0,0a.09.09,0,0,0,.06-.09l0,0a.18.18,0,0,0,.1-.11L3.18,5a.08.08,0,0,0,.06-.08.44.44,0,0,0,.14-.16.08.08,0,0,0,.07-.07l.23-.26a.08.08,0,0,0,.07-.08l.54-.54a.07.07,0,0,0,.07-.06l.53-.48A.19.19,0,0,0,5,3.11l.07-.06A.08.08,0,0,0,5.18,3l.59-.45a.08.08,0,0,0,.08-.06l.06,0A.08.08,0,0,0,6,2.39H6a.11.11,0,0,0,.1-.07l.1-.07s.07,0,.08-.05h0a.16.16,0,0,0,.11-.07l.06,0A.1.1,0,0,0,6.58,2l.23-.13a.12.12,0,0,0,.11-.07l.13-.07a.09.09,0,0,0,.09-.05l.08-.05a.07.07,0,0,0,.09,0l0,0a.19.19,0,0,0,.16-.08l0,0a.22.22,0,0,0,.15-.08l0,0a.25.25,0,0,0,.16-.08l.14-.06a.08.08,0,0,0,.09,0l0,0s.05,0,.06,0a.26.26,0,0,0,.17-.07A.22.22,0,0,0,8.62,1ZM25.69,11.41l-.05-.23s0,0,0-.07l0-.07a.08.08,0,0,0,0-.1l0-.17a.08.08,0,0,0,0-.1v-.06s0-.06,0-.07l0-.14s0-.05,0-.07v-.06s0-.06,0-.07a1.13,1.13,0,0,0-.08-.24.11.11,0,0,0,0-.12l0-.08a.19.19,0,0,0-.06-.17l0-.1a.33.33,0,0,0-.08-.19l0-.08s0-.05,0-.07A.61.61,0,0,0,24.94,9a0,0,0,0,0,0-.06.87.87,0,0,0-.1-.24.09.09,0,0,0,0-.09l0-.05a.19.19,0,0,0-.08-.15.17.17,0,0,0-.05-.12.09.09,0,0,0-.05-.09l0,0A.22.22,0,0,0,24.45,8a.53.53,0,0,0-.11-.21.12.12,0,0,0-.07-.11.86.86,0,0,0-.13-.23.12.12,0,0,0-.07-.11A.76.76,0,0,0,24,7.13c0-.06-.05-.1-.08-.14a10.86,10.86,0,0,0-.81-1.08A12.14,12.14,0,0,0,10.89,2a12,12,0,0,0-6.08,3.6,5.65,5.65,0,0,0-.62.77,2.67,2.67,0,0,0-.32.43.11.11,0,0,0-.07.1s0,0,0,0A.08.08,0,0,0,3.73,7a1.07,1.07,0,0,0-.15.22.09.09,0,0,0-.05.09,2.26,2.26,0,0,0-.26.42s0,0,0,.08l0,.09a.07.07,0,0,0-.05.09,5.13,5.13,0,0,0-.41.81,0,0,0,0,0,0,.06,2.09,2.09,0,0,0-.17.41.05.05,0,0,0,0,.07l0,.08a.25.25,0,0,0-.07.19l0,.08a.26.26,0,0,0-.07.19l0,.13a.27.27,0,0,0-.06.17l0,.14a.3.3,0,0,0-.06.2l0,.17s0,0,0,.07l0,.06a.11.11,0,0,0,0,.11L2,11a.09.09,0,0,0,0,.11v.06a.07.07,0,0,0,0,.1l0,.21c-.05,0,0,.08,0,.13v.1a.08.08,0,0,0,0,.11l0,.09a.08.08,0,0,0,0,.08l0,.16a.17.17,0,0,0,0,.17l0,.17a.23.23,0,0,0,0,.2v.14a.2.2,0,0,0,0,.17,3,3,0,0,0,0,.67,0,0,0,0,0,0,.07,3.26,3.26,0,0,0,0,.7.3.3,0,0,0,0,.21v.13a.26.26,0,0,0,0,.21v.13a.31.31,0,0,0,0,.21l0,.13a0,0,0,0,0,0,.07l0,.1a.07.07,0,0,0,0,.1v.1c0,.05,0,.1,0,.14l0,.2a.08.08,0,0,0,0,.1v.07a.09.09,0,0,0,0,.1l0,.17a.08.08,0,0,0,0,.1v.06a.06.06,0,0,0,0,.08l0,.06a.69.69,0,0,0,.09.31l0,.13a.26.26,0,0,0,.05.17l0,.13a.2.2,0,0,0,.06.17.74.74,0,0,0,.07.21.07.07,0,0,0,0,.09l0,.07a.24.24,0,0,0,.08.2l.06.14a.07.07,0,0,0,0,.09,1.39,1.39,0,0,0,.16.35.08.08,0,0,0,0,.09l.06.11a.07.07,0,0,0,0,.09.8.8,0,0,0,.15.29.07.07,0,0,0,0,.09.67.67,0,0,0,.13.21.1.1,0,0,0,.06.11,3.12,3.12,0,0,0,.27.43.1.1,0,0,0,.06.09,2,2,0,0,0,.25.35A.08.08,0,0,0,4,21L4,21a.08.08,0,0,0,.06.08,3.37,3.37,0,0,0,.34.43.07.07,0,0,0,.06.07l.07.1a12.07,12.07,0,0,0,7.17,4,11.77,11.77,0,0,0,5.53-.34,12.06,12.06,0,0,0,7.1-5.69,9.73,9.73,0,0,0,.9-2,.06.06,0,0,0,0-.09l.09-.27a.21.21,0,0,0,.05-.17l0-.16a.05.05,0,0,0,0-.07v-.07a0,0,0,0,0,0-.07l.05-.2s0,0,0-.07v-.06a.09.09,0,0,0,0-.11l0-.2a.13.13,0,0,0,0-.13v-.07a.07.07,0,0,0,0-.1l.05-.3a.19.19,0,0,0,0-.18l0-.09a.26.26,0,0,0,0-.21V15a.08.08,0,0,0,0-.1.82.82,0,0,0,0-.27.81.81,0,0,0,0-.41,5.48,5.48,0,0,0,0-.81.94.94,0,0,0,0-.44.6.6,0,0,0,0-.23.14.14,0,0,0,0-.14v-.13a.17.17,0,0,0,0-.17v-.1a.17.17,0,0,0,0-.17l0-.13s0,0,0-.08l0-.09s0-.06,0-.07l0-.1A.08.08,0,0,0,25.69,11.41Z"/><path class="cls-1" d="M5.53,12.09l0-.3a.14.14,0,0,0,0-.14,1.53,1.53,0,0,0,0-.37,1.88,1.88,0,0,0,0-.58,1.45,1.45,0,0,0,0-.36.14.14,0,0,0,0-.14l0-.3a.34.34,0,0,0,0-.24V9.53a.12.12,0,0,0,0-.14l0-.1a0,0,0,0,0,0-.07l0-.13s0-.09,0-.14v-.1a.07.07,0,0,0,0-.1l0-.24s0-.06,0-.1V8.35a0,0,0,0,0,0-.08l0-.16s0,0,0-.07l.07-.21A.29.29,0,0,0,6,7.63l.13-.28s0,0,0-.09l.25-.41a.1.1,0,0,0,.06-.09l0,0a.08.08,0,0,0,.07-.08A3.4,3.4,0,0,1,7.35,6a.08.08,0,0,0,.09-.05l0,0s.06,0,.09,0l.18-.06s0,0,.07,0h.06a.14.14,0,0,0,.14,0l.4,0a.81.81,0,0,0,.31,0h.57a.65.65,0,0,0,.31,0l.16,0a0,0,0,0,0,.07,0l.17,0a.09.09,0,0,0,.1,0l.07,0s0,0,.07,0l.07,0a.07.07,0,0,0,.09,0l.08,0a.1.1,0,0,0,.09.06l.23.23a.08.08,0,0,0,.06.08l0,.08a.08.08,0,0,0,.05.1l0,0a.36.36,0,0,0,.06.2l0,.24a.08.08,0,0,0,0,.1v.1a.26.26,0,0,0,0,.21l0,.26a.09.09,0,0,0,0,.11l0,.47a3.38,3.38,0,0,0,0,.84v.37a.21.21,0,0,0,0,.17v.07s0,0,0,.07l0,.1a.25.25,0,0,0-.06.17l0,.08a.07.07,0,0,0,0,.09l-.06.11s-.06,0-.05.09l0,.08a.08.08,0,0,0-.06.08l0,.06a.08.08,0,0,0-.06.08,3.65,3.65,0,0,1-.57.47.08.08,0,0,0-.08.06,5.92,5.92,0,0,0-.7.45.06.06,0,0,0-.08,0s0,0,0,0a.11.11,0,0,0-.1.07l-.1.07A.08.08,0,0,0,9,11.9a1,1,0,0,1-.17.1.19.19,0,0,0-.11.26.2.2,0,0,0,0,.17l0,.27s0,.05,0,.07l0,.09a.09.09,0,0,0,0,.11l0,.17s0,0,0,.07l0,.06s0,.08,0,.1a.77.77,0,0,0,.07.27s0,.06,0,.07l.05.14a.19.19,0,0,0,.06.17.53.53,0,0,0,.07.2.07.07,0,0,0,0,.09l0,.08a0,0,0,0,0,0,.06,2.58,2.58,0,0,0,.21.48.08.08,0,0,0,.05.09l0,.11a.09.09,0,0,0,.05.09.72.72,0,0,0,.12.21.2.2,0,0,0,.09.16l0,.08a.1.1,0,0,0,.06.09,3,3,0,0,0,.35.52.06.06,0,0,0,0,.08.58.58,0,0,0,.15.19.08.08,0,0,0,.06.08,1.13,1.13,0,0,0,.24.29.08.08,0,0,0,.06.08,8.46,8.46,0,0,0,2,1.69.06.06,0,0,0,.08,0c.15.11.21,0,.31-.09a.1.1,0,0,0,.09-.06,2.26,2.26,0,0,0,.38-.25s.08,0,.09-.05a3.73,3.73,0,0,0,.39-.25.08.08,0,0,0,.08-.06s0,0,0,0a.1.1,0,0,0,.1-.07l.1-.06a.1.1,0,0,0,.09-.06l.08-.05a.08.08,0,0,0,.09-.05l.11-.05s.07,0,.09,0l.08,0a.36.36,0,0,0,.2-.06l.2,0a.39.39,0,0,0,.24,0h.17a.23.23,0,0,0,.2,0l.24,0a.37.37,0,0,0,.2.07l.08,0a.09.09,0,0,0,.09.05,1.87,1.87,0,0,0,.35.16.18.18,0,0,0,.15.07l0,0a.08.08,0,0,0,.09.05,1.58,1.58,0,0,0,.35.16.23.23,0,0,0,.16.08l0,0a.07.07,0,0,0,.09,0l.11.06a.09.09,0,0,0,.09.05l.59.35a.09.09,0,0,0,.09.06,1.5,1.5,0,0,1,.51.63s0,.06,0,.07l.05.23a.81.81,0,0,0,0,.31v.07s0,0,0,.07v.06s0,0,0,.07v.07a0,0,0,0,0,0,.06l0,.14a.05.05,0,0,0,0,.07l-.16.41a.07.07,0,0,0,0,.09l-.25.52a.08.08,0,0,0-.05.09l-.08.12a.13.13,0,0,0-.06.11s0,0,0,0a.09.09,0,0,0-.06.09,2.54,2.54,0,0,1-.74.64.08.08,0,0,0-.09,0l-.11.05a.07.07,0,0,0-.09,0l-.18.06s-.08,0-.1,0L17,23S17,23,17,23l-.1,0c-.05,0-.09,0-.13,0a6,6,0,0,1-.85,0s0,0-.07,0l-.26,0a.14.14,0,0,0-.14,0h-.1a.08.08,0,0,0-.1,0l-.2,0a.08.08,0,0,0-.11,0l-.06,0s0,0-.07,0l-.17,0a.3.3,0,0,0-.2-.06l-.17,0s0,0-.07,0l-.27-.09a.21.21,0,0,0-.17-.05l-.08,0a.07.07,0,0,0-.09,0l-.28-.1a.07.07,0,0,0-.09,0l-.08,0a.07.07,0,0,0-.09,0l-.14-.06a.07.07,0,0,0-.09,0l-.15-.07a.19.19,0,0,0-.16-.07l0,0a.09.09,0,0,0-.09-.05l-.11-.05a.08.08,0,0,0-.1-.05l-.08,0a2.12,2.12,0,0,0-.49-.27l-.08-.05s0-.05-.08-.05l-.09,0a.06.06,0,0,0-.08-.05l-.08-.05a.1.1,0,0,0-.09-.06.64.64,0,0,0-.22-.14.08.08,0,0,0-.08-.06l-.06,0a.08.08,0,0,0-.08-.06l-.46-.34a.1.1,0,0,0-.08-.07l-.29-.24a.08.08,0,0,0-.08-.06A1.48,1.48,0,0,0,9.46,20a.09.09,0,0,0-.08-.07c-.37-.37-.73-.74-1.07-1.14a.08.08,0,0,0-.07-.08L8,18.46a.13.13,0,0,0-.08-.1L7.69,18c0-.05,0-.07-.05-.09l-.35-.52a.07.07,0,0,0,0-.09L7,16.85a.08.08,0,0,0-.05-.09,15.63,15.63,0,0,1-.87-2.07s0,0,0-.07l0-.13a.48.48,0,0,0-.07-.23l0-.14a0,0,0,0,0,0-.07V14s0-.05,0-.07l0-.2s0-.05,0-.07v-.06a.11.11,0,0,0,0-.11l0-.23s0-.08,0-.1V13s0-.1,0-.14l0-.13s0,0,0-.07v-.1a.12.12,0,0,0,0-.14v-.13A.34.34,0,0,0,5.53,12.09Z"/><path class="cls-1" d="M18.39,7.32s0,0,0,0l.68.51h0a.49.49,0,0,0,.2.18l0,0c.21.21.41.43.61.65s.45.58.68.87c0,0,0,0,0,0s0,.08.05.12a7.59,7.59,0,0,1,1,2.55c.05.26.09.51.13.77v.67a.79.79,0,0,1-.64.78.81.81,0,0,1-.91-.51,2,2,0,0,1-.07-.26v-.1s0-.11,0-.16a6,6,0,0,0-1.13-3.24,3.24,3.24,0,0,0-.51-.6l0,0A2.42,2.42,0,0,0,18,9.09h0A.4.4,0,0,0,17.87,9,6.47,6.47,0,0,0,16.16,8a.8.8,0,1,1,.56-1.5c.19.06.36.14.55.22A12,12,0,0,1,18.39,7.32Z"/><path class="cls-1" d="M18.06,13.63a.81.81,0,0,1-.58.87.8.8,0,0,1-.92-.34.83.83,0,0,1-.13-.43,2.26,2.26,0,0,0-1.51-2.13.82.82,0,1,1,.58-1.53A3.94,3.94,0,0,1,18.06,13.63Z"/></svg>