<svg id="Layer_1" data-name="Layer 1" xmlns="http://www.w3.org/2000/svg" viewBox="0 0 24.32 24.75"><defs><style>.cls-1{fill:#fff;}</style></defs><title>Layout Tool check keyword</title><path class="cls-1" d="M10.68,24.75A8.49,8.49,0,0,0,9,24.32,12.13,12.13,0,0,1,0,11.73a11.84,11.84,0,0,1,6.54-10A1.63,1.63,0,1,1,8.12,4.65a8.9,8.9,0,1,0,8.28.11c-.92-.5-1.3-1.09-1.18-1.84A1.63,1.63,0,0,1,17.6,1.7a11.76,11.76,0,0,1,4.56,4,12.17,12.17,0,0,1-7,18.73,12.53,12.53,0,0,0-1.72.37Z"/><path class="cls-1" d="M12.44,0c1.08.42,1.34.81,1.34,2V13.68a1.6,1.6,0,0,1-1.62,1.75,1.56,1.56,0,0,1-1.61-1.53q0-6.17,0-12.32A1.64,1.64,0,0,1,11.89,0Z"/></svg>